#!OML:ASF E:\emotionWalksFemale\Project 1\Capture day 1\Session 1\Female1.ASF
:FULLY-SPECIFIED
:DEGREES
744
root 7.70757 15.3046 0.463762 453.05 -81.857 -453.533
lowerback 10.335 2.99867 4.81645
upperback -2.58406 4.79697 1.99726
thorax -8.33751 2.12836 -1.40119
lowerneck -10.9138 -4.22884 -5.9113
upperneck 15.6146 -5.42368 3.4756
head 6.81981 -2.71346 1.58324
rclavicle -1.35049e-014 -4.17448e-015
rhumerus -24.3198 12.9695 -79.3624
rradius 36.1423
rwrist 17.2593
rhand -7.11913 -54.3272
rfingers 7.12502
rthumb -161.244 96.5571
lclavicle -1.35049e-014 -4.17448e-015
lhumerus -63.8679 2.14203 71.7616
lradius 32.6925
lwrist -22.4733
lhand 4.8562 -23.8799
lfingers 7.12502
lthumb 30.2328 3.66497
rfemur 11.4728 13.6504 37.6441
rtibia 8.78215
rfoot -11.3008 -31.2372
rtoes -2.61274
lfemur -33.9938 -14.6 -8.21946
ltibia 31.9629
lfoot -22.4558 24.4254
ltoes 13.7239
745
root 7.53485 15.2827 0.464389 455.204 -81.7483 -455.749
lowerback 10.3256 3.13423 5.09424
upperback -2.5608 5.01192 1.99496
thorax -8.27284 2.22024 -1.59047
lowerneck -10.9164 -4.24794 -5.84044
upperneck 15.6894 -5.44821 3.37426
head 6.84071 -2.73025 1.53625
rclavicle -2.51649e-014 3.97569e-016
rhumerus -23.3487 12.6802 -78.8831
rradius 36.3145
rwrist 18.8923
rhand -5.75712 -54.0524
rfingers 7.12502
rthumb -159.934 96.9638
lclavicle -2.51649e-014 3.97569e-016
lhumerus -64.2434 2.46652 70.8181
lradius 32.357
lwrist -23.109
lhand 6.23402 -24.0618
lfingers 7.12502
lthumb 31.5463 3.23412
rfemur 13.1647 13.3729 37.9462
rtibia 7.16326
rfoot -11.2901 -30.6997
rtoes -0.777836
lfemur -34.4642 -18.5217 -5.81307
ltibia 30.1225
lfoot -23.6476 27.4608
ltoes 14.1225
746
root 7.35734 15.2591 0.466525 457.842 -81.5453 -458.43
lowerback 10.1934 3.25247 5.41236
upperback -2.55697 5.20154 2.01154
thorax -8.15622 2.30009 -1.76936
lowerneck -10.7884 -4.2389 -5.73442
upperneck 15.6724 -5.45788 3.34143
head 6.80925 -2.73369 1.51011
rclavicle 1.22284e-014 2.98177e-015
rhumerus -22.8296 13.9482 -79.0153
rradius 37.1371
rwrist 18.0765
rhand -6.27684 -54.696
rfingers 7.12502
rthumb -160.434 96.2686
lclavicle 1.22284e-014 2.98177e-015
lhumerus -64.6631 3.00848 69.6863
lradius 32.0412
lwrist -23.9092
lhand 7.30214 -24.2604
lfingers 7.12502
lthumb 32.5632 2.83091
rfemur 15.1327 13.1673 38.3609
rtibia 5.25567
rfoot -11.5303 -30.0698
rtoes 2.20207
lfemur -35.1364 -22.4753 -3.09135
ltibia 28.7385
lfoot -25.092 30.3486
ltoes 15.1173
747
root 7.17744 15.2516 0.470599 460.476 -81.4453 -461.111
lowerback 10.0566 3.33595 5.63537
upperback -2.56215 5.33112 2.01769
thorax -8.05613 2.35522 -1.89629
lowerneck -10.6221 -4.1919 -5.66153
upperneck 15.6136 -5.4161 3.34209
head 6.75714 -2.71186 1.5061
rclavicle -3.52284e-014 -1.39149e-014
rhumerus -22.1951 14.8868 -78.8818
rradius 37.7872
rwrist 18.1029
rhand -5.6123 -54.8904
rfingers 7.12502
rthumb -159.795 96.1404
lclavicle -3.52284e-014 -1.39149e-014
lhumerus -65.0275 3.85075 68.294
lradius 31.5987
lwrist -25.0008
lhand 8.02542 -24.1752
lfingers 7.12502
lthumb 33.2512 2.77165
rfemur 17.5414 13.0278 38.3009
rtibia 1.61408
rfoot -8.64932 -29.7098
rtoes -0.31387
lfemur -35.93 -26.2611 -0.464743
ltibia 27.763
lfoot -27.2402 32.5333
ltoes 17.9753
748
root 6.99664 15.2282 0.478449 463.143 -81.3881 -463.831
lowerback 9.91452 3.39549 5.74872
upperback -2.5704 5.41428 2.0268
thorax -7.96846 2.39325 -1.95172
lowerneck -10.5822 -4.09779 -5.56149
upperneck 15.7497 -5.30735 3.29642
head 6.78448 -2.65998 1.48559
rclavicle -1.30515e-014 -1.59028e-014
rhumerus -21.6308 16.0207 -78.7598
rradius 38.5139
rwrist 17.7102
rhand -5.4182 -55.001
rfingers 7.12502
rthumb -159.608 96.0497
lclavicle -1.30515e-014 -1.59028e-014
lhumerus -65.3941 4.70283 66.8637
lradius 31.1008
lwrist -26.028
lhand 8.86553 -23.8362
lfingers 7.12502
lthumb 34.0496 2.93654
rfemur 19.1604 12.8541 38.3348
rtibia 3.18055e-014
rfoot -7.85029 -29.3851
rtoes 0.266534
lfemur -36.9135 -29.949 2.10457
ltibia 27.1574
lfoot -29.6352 34.4186
ltoes 20.6755
